
<svg xmlns="http://www.w3.org/2000/svg"
     class="svg-snoweb svg-theme-dark"
     x="0"
     y="0"
     width="100%"
     height="100%"
     viewBox="0 0 100 100"
     preserveAspectRatio="xMidYMid meet"
>
<defs>
    <style>
        
            
            
            
        

        .svg-fill-primary {
            fill: #FFF;
        }

        .svg-fill-secondary {
            fill: #65CDAE;
        }

        .svg-fill-tertiary {
            fill: #37A987;
        }

        .svg-stroke-primary {
            stroke: #FFF;
        }

        .svg-stroke-secondary {
            stroke: #65CDAE;
        }

        .svg-stroke-tertiary {
            stroke: #37A987;
        }
    </style>
</defs>
    <path d="M19.641,74.391h60.719c0,3.703-3.006,6.709-6.709,6.709H26.35c-3.703,0-6.709-3.006-6.709-6.709h0Z" fill="none"
      class="svg-stroke-primary" stroke-linecap="round" stroke-linejoin="round" stroke-width="6"/>
<path d="M18.887,61.652s7.127-7.264,14.803,0c0,0,9.594,9.046,16.31,0,0,0,10.417-9.077,17.681,.396,0,0,7.813,6.868,13.432,.152"
      fill="none" class="svg-stroke-primary" stroke-linecap="round" stroke-linejoin="round" stroke-width="6"/>
<line x1="17.999" y1="50.027" x2="82.001" y2="50.027" fill="none" class="svg-stroke-primary" stroke-linecap="round"
      stroke-linejoin="round" stroke-width="6"/>
<path d="M42.398,18.9h15.204c12.226,0,22.151,9.926,22.151,22.151H20.246c0-12.226,9.926-22.151,22.151-22.151Z"
      fill="none" class="svg-stroke-primary" stroke-linecap="round" stroke-linejoin="round" stroke-width="5.574"/>

</svg>