<svg fill="none" height="14" viewBox="0 0 14 14" width="14" xmlns="http://www.w3.org/2000/svg" xmlns:xlink="http://www.w3.org/1999/xlink"><clipPath id="a"><path d="m0 0h14v14h-14z"/></clipPath><g clip-path="url(#a)" stroke="#000001" stroke-linecap="round" stroke-linejoin="round"><path d="m7.5 9-3 .54.5-3.04 5.73-5.71c.093-.093728.2036-.168123.3254-.218891.1219-.050769.2526-.076907.3846-.076907s.2627.026138.3846.076907c.1218.050768.2324.125163.3254.218891l1.06 1.06c.0937.09296.1681.20356.2189.32542s.0769.25257.0769.38458-.0261.26272-.0769.38458-.1252.23246-.2189.32542z"/><path d="m12 9.5v3c0 .2652-.1054.5196-.2929.7071s-.4419.2929-.7071.2929h-9.5c-.26522 0-.51957-.1054-.707107-.2929-.187536-.1875-.292893-.4419-.292893-.7071v-9.5c0-.26522.105357-.51957.292893-.70711.187537-.18753.441887-.29289.707107-.29289h3"/></g></svg>