
<svg xmlns="http://www.w3.org/2000/svg"
     class="svg-snoweb svg-theme-dark"
     x="0"
     y="0"
     width="100%"
     height="100%"
     viewBox="0 0 100 100"
     preserveAspectRatio="xMidYMid meet"
>
<defs>
    <style>
        
            
            
            
        

        .svg-fill-primary {
            fill: #FFF;
        }

        .svg-fill-secondary {
            fill: #65CDAE;
        }

        .svg-fill-tertiary {
            fill: #37A987;
        }

        .svg-stroke-primary {
            stroke: #FFF;
        }

        .svg-stroke-secondary {
            stroke: #65CDAE;
        }

        .svg-stroke-tertiary {
            stroke: #37A987;
        }
    </style>
</defs>
    <path d="M17.9,66.1,36.3,47.6a8,8,0,0,1,11.3,0L66.1,66.1M58,58l6.4-6.3a7.9,7.9,0,0,1,11.3,0L82.1,58M58,33.9h.1M25.9,82.1H74.1a8,8,0,0,0,8-8V25.9a8,8,0,0,0-8-8H25.9a8,8,0,0,0-8,8V74.1A8,8,0,0,0,25.9,82.1Z"
      fill="none" class="svg-stroke-primary" stroke-linecap="round" stroke-linejoin="round" stroke-width="8"/>

</svg>