<svg xmlns="http://www.w3.org/2000/svg" xmlns:xlink="http://www.w3.org/1999/xlink" version="1.1" x="0px" y="0px" viewBox="0 0 100 125" style="enable-background:new 0 0 100 100;" xml:space="preserve"><g><path d="M12,72h53c1.4,0,2.6-0.5,3.5-1.4c0.9,0.9,2.2,1.4,3.5,1.4H88c2.8,0,5.1-2.3,5.1-5.1V33.2c0-2.8-2.3-5.1-5.1-5.1H72.1   c-1.4,0-2.6,0.5-3.5,1.4C67.6,28.6,66.4,28,65,28H12c-2.8,0-5.1,2.3-5.1,5.1v33.7C6.9,69.7,9.2,72,12,72z M10.1,33.2   c0-1.1,0.9-1.9,1.9-1.9h53c1.1,0,1.9,0.9,1.9,1.9v2.4c0,0.9,0.7,1.6,1.6,1.6c0.9,0,1.6-0.7,1.6-1.6v-2.4c0-1.1,0.9-1.9,1.9-1.9H88   c1.1,0,1.9,0.9,1.9,1.9v33.7c0,1.1-0.9,1.9-1.9,1.9H72.1c-1.1,0-1.9-0.9-1.9-1.9v-2.4c0-0.9-0.7-1.6-1.6-1.6   c-0.9,0-1.6,0.7-1.6,1.6v2.4c0,1.1-0.9,1.9-1.9,1.9H12c-1.1,0-1.9-0.9-1.9-1.9V33.2z"/><path d="M68.5,61.9c0.9,0,1.6-0.7,1.6-1.6v-4.1c0-0.9-0.7-1.6-1.6-1.6c-0.9,0-1.6,0.7-1.6,1.6v4.1C66.9,61.2,67.6,61.9,68.5,61.9z"/><path d="M68.5,45.4c0.9,0,1.6-0.7,1.6-1.6v-4.1c0-0.9-0.7-1.6-1.6-1.6c-0.9,0-1.6,0.7-1.6,1.6v4.1C66.9,44.7,67.6,45.4,68.5,45.4z"/><path d="M68.5,53.7c0.9,0,1.6-0.7,1.6-1.6v-4.1c0-0.9-0.7-1.6-1.6-1.6c-0.9,0-1.6,0.7-1.6,1.6v4.1C66.9,52.9,67.6,53.7,68.5,53.7z"/><path d="M29.3,63.9c3.2,0,5.5-1.7,5.5-4v-18l11.5-2.3v13.8c-0.7-0.2-1.5-0.3-2.3-0.3c-3.2,0-5.5,1.7-5.5,4c0,2.3,2.4,4,5.5,4   s5.5-1.7,5.5-4V37.7c0,0,0,0,0,0v0c0-0.1,0-0.1,0-0.2c0,0,0-0.1,0-0.1c0,0,0,0,0,0c0-0.2-0.1-0.4-0.2-0.6c0,0-0.1-0.1-0.1-0.1   c0,0-0.1-0.1-0.1-0.1c0,0-0.1-0.1-0.1-0.1c0,0-0.1-0.1-0.1-0.1c0,0-0.1,0-0.1,0c-0.1,0-0.1-0.1-0.2-0.1c0,0,0,0,0,0   c-0.1,0-0.2-0.1-0.3-0.1c-0.1,0-0.2,0-0.3,0c0,0,0,0,0,0c-0.1,0-0.1,0-0.2,0c0,0-0.1,0-0.1,0l0,0c0,0,0,0,0,0L33,39c0,0,0,0,0,0   c-0.2,0-0.4,0.1-0.6,0.2c0,0-0.1,0.1-0.1,0.1c0,0-0.1,0.1-0.1,0.1c0,0-0.1,0.1-0.1,0.1c0,0-0.1,0.1-0.1,0.1c0,0,0,0.1-0.1,0.1   c0,0.1-0.1,0.1-0.1,0.2c0,0.1,0,0.1-0.1,0.2c0,0,0,0.1,0,0.1c0,0.1,0,0.2,0,0.3c0,0,0,0,0,0v15.7C31,56.1,30.2,56,29.3,56   c-3.2,0-5.5,1.7-5.5,4C23.8,62.2,26.2,63.9,29.3,63.9z"/></g><text x="0" y="115" fill="#000000" font-size="5px" font-weight="bold" font-family="'Helvetica Neue', Helvetica, Arial-Unicode, Arial, Sans-serif">Created by mikicon</text><text x="0" y="120" fill="#000000" font-size="5px" font-weight="bold" font-family="'Helvetica Neue', Helvetica, Arial-Unicode, Arial, Sans-serif">from the Noun Project</text></svg>