
<svg xmlns="http://www.w3.org/2000/svg"
     class="svg-snoweb svg-theme-dark"
     x="0"
     y="0"
     width="100%"
     height="100%"
     viewBox="0 0 100 100"
     preserveAspectRatio="xMidYMid meet"
>
<defs>
    <style>
        
            
            
            
        

        .svg-fill-primary {
            fill: #FFF;
        }

        .svg-fill-secondary {
            fill: #65CDAE;
        }

        .svg-fill-tertiary {
            fill: #37A987;
        }

        .svg-stroke-primary {
            stroke: #FFF;
        }

        .svg-stroke-secondary {
            stroke: #65CDAE;
        }

        .svg-stroke-tertiary {
            stroke: #37A987;
        }
    </style>
</defs>
    <path d="M60.7,25v7.2m0,14.2v7.2m0,14.2V75M25,25a7.1,7.1,0,0,0-7.1,7.2V42.9a7.1,7.1,0,1,1,0,14.2V67.8A7.1,7.1,0,0,0,25,75H75a7.1,7.1,0,0,0,7.1-7.2V57.1a7.1,7.1,0,1,1,0-14.2V32.2A7.1,7.1,0,0,0,75,25Z"
      fill="none" class="svg-stroke-primary" stroke-linecap="round" stroke-linejoin="round" stroke-width="8"/>

</svg>