<svg xmlns="http://www.w3.org/2000/svg" xmlns:xlink="http://www.w3.org/1999/xlink" version="1.1" width="256" height="256" viewBox="0 0 256 256" xml:space="preserve">

<defs>
</defs>
<g style="stroke: none; stroke-width: 0; stroke-dasharray: none; stroke-linecap: butt; stroke-linejoin: miter; stroke-miterlimit: 10; fill: none; fill-rule: nonzero; opacity: 1;" transform="translate(1.4065934065934016 1.4065934065934016) scale(2.81 2.81)" >
	<path d="M 55.51 55.205 l -8.385 -8.385 c -0.141 -0.141 -0.296 -0.268 -0.463 -0.379 c -0.066 -0.044 -0.137 -0.073 -0.205 -0.112 c -0.102 -0.057 -0.202 -0.118 -0.311 -0.163 c -0.093 -0.039 -0.191 -0.06 -0.287 -0.089 c -0.091 -0.027 -0.178 -0.062 -0.272 -0.081 c -0.191 -0.038 -0.385 -0.058 -0.579 -0.058 c -0.003 0 -0.005 -0.001 -0.007 -0.001 c 0 0 0 0 0 0 c -0.197 0 -0.394 0.021 -0.588 0.059 c -0.087 0.017 -0.168 0.05 -0.253 0.075 c -0.103 0.03 -0.207 0.054 -0.307 0.095 c -0.101 0.042 -0.193 0.1 -0.289 0.152 c -0.076 0.042 -0.154 0.075 -0.227 0.123 c -0.166 0.111 -0.32 0.236 -0.461 0.377 l -8.386 8.386 c -1.172 1.171 -1.172 3.071 0 4.242 c 1.171 1.172 3.071 1.172 4.242 0 L 42 56.18 v 21.26 c 0 1.657 1.343 3 3 3 c 1.657 0 3 -1.343 3 -3 V 56.18 l 3.268 3.268 c 0.586 0.586 1.354 0.879 2.121 0.879 s 1.535 -0.293 2.121 -0.879 C 56.682 58.276 56.682 56.376 55.51 55.205 z" style="stroke: none; stroke-width: 1; stroke-dasharray: none; stroke-linecap: butt; stroke-linejoin: miter; stroke-miterlimit: 10; fill: rgb(0,0,0); fill-rule: nonzero; opacity: 1;" transform=" matrix(1 0 0 1 0 0) " stroke-linecap="round" />
	<path d="M 69.893 70.998 H 56.731 c -1.657 0 -3 -1.343 -3 -3 s 1.343 -3 3 -3 h 13.161 C 77.672 64.998 84 58.67 84 50.891 c 0 -7.779 -6.328 -14.107 -14.107 -14.107 h -1.297 c -1.631 0 -2.964 -1.303 -2.999 -2.934 C 65.375 23.765 56.994 15.56 46.916 15.56 h -3.832 c -10.079 0 -18.458 8.205 -18.68 18.289 c -0.036 1.631 -1.368 2.934 -3 2.934 h -1.297 C 12.329 36.783 6 43.112 6 50.891 c 0 7.779 6.329 14.107 14.107 14.107 h 13.162 c 1.657 0 3 1.343 3 3 s -1.343 3 -3 3 H 20.107 C 9.02 70.998 0 61.978 0 50.891 C 0 40.297 8.234 31.59 18.64 30.836 C 20.331 18.869 30.743 9.56 43.084 9.56 h 3.832 c 12.341 0 22.754 9.309 24.445 21.276 C 81.765 31.591 90 40.297 90 50.891 C 90 61.978 80.979 70.998 69.893 70.998 z" style="stroke: none; stroke-width: 1; stroke-dasharray: none; stroke-linecap: butt; stroke-linejoin: miter; stroke-miterlimit: 10; fill: rgb(0,0,0); fill-rule: nonzero; opacity: 1;" transform=" matrix(1 0 0 1 0 0) " stroke-linecap="round" />
</g>
</svg>